<?xml version="1.0" encoding="UTF-8"?>
<!DOCTYPE svg PUBLIC "-//W3C//DTD SVG 1.1//EN" "http://www.w3.org/Graphics/SVG/1.1/DTD/svg11.dtd">
<!-- Creator: CorelDRAW X8 -->
<svg xmlns="http://www.w3.org/2000/svg" xml:space="preserve" width="1387px" height="1596px" version="1.1" style="shape-rendering:geometricPrecision; text-rendering:geometricPrecision; image-rendering:optimizeQuality; fill-rule:evenodd; clip-rule:evenodd"
viewBox="0 0 1387 1595"
 xmlns:xlink="http://www.w3.org/1999/xlink">
 <defs>
  <style type="text/css">
   <![CDATA[
    .fil0 {fill:black}
   ]]>
  </style>
   <clipPath id="id0">
    <rect x="-2" width="1391" height="1595"/>
   </clipPath>
 </defs>
 <g id="Livello_x0020_1">
  <metadata id="CorelCorpID_0Corel-Layer"/>
  <g style="clip-path:url(#id0)">
   <image x="-2" y="0" width="1391" height="1595" xlink:href="revolut-vector-ok_Images\revolut-vector-ok_ImgID1.png"/>
  </g>
  <g id="_1366680884176">
   <path class="fil0" d="M956 862c0,20 126,350 147,395 18,38 26,55 52,85 13,15 17,7 22,24 -19,5 -39,16 -84,25 -75,15 -80,13 -154,13 -107,0 -165,-94 -193,-178 -16,-47 -31,-88 -47,-136 -15,-46 -37,-95 -47,-140l-100 0c0,16 -6,36 -8,50l-25 154c-5,36 -13,69 -16,100 -11,103 3,58 3,108l-91 26c-52,12 -96,11 -151,11 -119,0 -70,-178 -62,-241l62 -396c19,-112 48,-288 60,-399l7 -146c4,-19 7,-12 57,-18 119,-16 412,-27 507,-9 45,9 78,21 116,34 109,40 186,148 186,288 0,87 -38,170 -78,218 -32,39 -114,121 -163,132zm-212 -862l40 0c128,1 194,14 316,64 19,8 29,16 46,25 31,17 55,35 80,58 47,42 22,21 54,54 74,78 105,234 105,340 0,114 -9,144 -77,231 -39,49 -80,93 -131,128 5,11 38,285 122,378 99,109 53,219 -85,271 -70,26 -147,43 -225,46l-43 0c-57,-2 -114,-13 -166,-36 -21,-9 -101,-61 -107,-85l-13 0c-6,22 -43,45 -62,55 -98,51 -223,62 -338,62 -144,0 -262,-122 -262,-266l0 -55c0,-31 27,-181 33,-228 20,-144 52,-310 71,-454 10,-76 24,-147 35,-224 12,-93 -5,-172 27,-235 13,-25 37,-52 61,-68 28,-20 55,-27 96,-33 52,-8 292,-24 368,-24 25,0 34,-3 55,-4z"/>
   <path class="fil0" d="M581 775c104,0 162,8 232,-68 62,-66 84,-222 23,-292 -57,-64 -104,-53 -192,-53 -2,56 -63,357 -63,413z"/>
  </g>
 </g>
</svg>
